name rise37.2698peak67.6939fall79.5734.mot
datacolumns 19
datarows 11
range 20.97825400000000 20.99491800000000
endheader
time	ground_force1_vx	ground_force1_vy	ground_force1_vz	ground_force1_px	ground_force1_py	ground_force1_pz	ground_force2_vx	ground_force2_vy	ground_force2_vz	ground_force2_px	ground_force2_py	ground_force2_pz	ground_torque1_x	ground_torque1_y	ground_torque1_z	ground_torque2_x	ground_torque2_y	ground_torque2_z	
20.97825400000000	-9.25670500000000	40.40671700000000	-11.27440400000000	0.34152400000000	0.00000000000000	0.08218800000000	-54.25030800000000	801.59137799999996	-47.95547200000000	0.13119500000000	0.00000000000000	-0.07926500000000	0.00000000000000	-7.70970300000000	0.00000000000000	0.00000000000000	-18.20160300000000	0.00000000000000	
20.97991800000000	-10.17175900000000	47.24405700000000	-12.66005100000000	0.34557400000000	0.00000000000000	0.08351600000000	-55.03670800000000	799.19856600000003	-47.67927600000000	0.13022100000000	0.00000000000000	-0.07914500000000	0.00000000000000	-8.72187700000000	0.00000000000000	0.00000000000000	-18.17557600000000	0.00000000000000	
20.98159500000000	-10.91843600000000	54.13732400000000	-13.91329800000000	0.34930200000000	0.00000000000000	0.08472500000000	-55.84353100000000	796.70979599999998	-47.38839900000000	0.12924600000000	0.00000000000000	-0.07902200000000	0.00000000000000	-9.65648500000000	0.00000000000000	0.00000000000000	-18.15234800000000	0.00000000000000	
20.98325600000000	-11.47217800000000	60.99539800000000	-15.00456300000000	0.35275800000000	0.00000000000000	0.08583300000000	-56.67017100000000	794.12166800000000	-47.08263100000000	0.12827000000000	0.00000000000000	-0.07889800000000	0.00000000000000	-10.49215300000000	0.00000000000000	0.00000000000000	-18.13186000000000	0.00000000000000	
20.98492500000000	-11.81859500000000	67.75015999999999	-15.91448200000000	0.35598100000000	0.00000000000000	0.08685200000000	-57.51590500000000	791.43065500000000	-46.76176900000000	0.12729400000000	0.00000000000000	-0.07877100000000	0.00000000000000	-11.21431300000000	0.00000000000000	0.00000000000000	-18.11403400000000	0.00000000000000	
20.98659400000000	-11.95331100000000	74.35849399999999	-16.63401900000000	0.35900500000000	0.00000000000000	0.08779600000000	-58.37989500000000	788.63312099999996	-46.42561600000000	0.12631900000000	0.00000000000000	-0.07864200000000	0.00000000000000	-11.81539300000000	0.00000000000000	0.00000000000000	-18.09877100000000	0.00000000000000	
20.98825500000000	-11.88101600000000	80.80189100000000	-17.16370100000000	0.36185800000000	0.00000000000000	0.08867300000000	-59.26118200000000	785.72532799999999	-46.07398700000000	0.12534500000000	0.00000000000000	-0.07851100000000	0.00000000000000	-12.29440600000000	0.00000000000000	0.00000000000000	-18.08595400000000	0.00000000000000	
20.98992400000000	-11.61394100000000	87.08409899999999	-17.51221400000000	0.36456000000000	0.00000000000000	0.08949100000000	-60.15869100000000	782.70344999999998	-45.70670700000000	0.12437500000000	0.00000000000000	-0.07837800000000	0.00000000000000	-12.65606300000000	0.00000000000000	0.00000000000000	-18.07544300000000	0.00000000000000	
20.99158500000000	-11.16997100000000	93.22733900000000	-17.69456600000000	0.36713100000000	0.00000000000000	0.09025700000000	-61.07122600000000	779.56359099999997	-45.32361400000000	0.12340800000000	0.00000000000000	-0.07824200000000	0.00000000000000	-12.90957300000000	0.00000000000000	0.00000000000000	-18.06708100000000	0.00000000000000	
20.99325000000000	-10.57062900000000	99.26765899999999	-17.73004700000000	0.36958700000000	0.00000000000000	0.09097600000000	-61.99747400000000	776.30179199999998	-44.92455800000000	0.12244500000000	0.00000000000000	-0.07810500000000	0.00000000000000	-13.06728400000000	0.00000000000000	0.00000000000000	-18.06068700000000	0.00000000000000	
20.99491800000000	-9.83910200000000	105.24995699999999	-17.64020400000000	0.37193900000000	0.00000000000000	0.09165400000000	-62.93600200000000	772.91405199999997	-44.50940900000000	0.12148900000000	0.00000000000000	-0.07796500000000	0.00000000000000	-13.14329000000000	0.00000000000000	0.00000000000000	-18.05606500000000	0.00000000000000	
